<svg xmlns="http://www.w3.org/2000/svg" viewBox="0 0 48 48">
  <path d="M26 6C22.565821 6 19.570791 7.9486517 18.054688 10.792969C16.584749 9.0874078 14.414933 8 12 8C7.5994871 8 4 11.59949 4 16C4 18.176517 4.882176 20.155569 6.3046875 21.601562C4.9398829 22.378342 4 23.831454 4 25.5L4 37.5C4 39.967501 6.0324991 42 8.5 42L29.5 42C31.757866 42 33.632037 40.292962 33.9375 38.113281L38.699219 40.96875C40.967559 42.330094 44 40.612472 44 37.966797L44 26.03125C44 24.046994 42.294234 22.58529 40.484375 22.552734C39.881089 22.541884 39.266304 22.690914 38.699219 23.03125L34 25.849609L34 25.5C34 23.930254 33.173301 22.542677 31.939453 21.736328C33.80951 20.084471 35 17.678159 35 15C35 10.047206 30.952798 6 26 6 z M 26 9C29.331479 9 32 11.668523 32 15C32 18.331477 29.331479 21 26 21C22.668521 21 20 18.331477 20 15C20 11.668523 22.668521 9 26 9 z M 12 11C14.779194 11 17 13.220808 17 16C17 18.779192 14.779194 21 12 21C9.2208063 21 7 18.779192 7 16C7 13.220808 9.2208063 11 12 11 z M 8.5 24L12 24L26 24L29.5 24C30.346499 24 31 24.653501 31 25.5L31 37.5C31 38.346499 30.346499 39 29.5 39L8.5 39C7.6535009 39 7 38.346499 7 37.5L7 25.5C7 24.653501 7.6535009 24 8.5 24 z M 40.529297 25.503906C40.798352 25.481819 41 25.683006 41 26.03125L41 37.966797C41 38.431122 40.639847 38.63514 40.242188 38.396484L34 34.650391L34 29.349609L40.242188 25.603516C40.341602 25.543852 40.439612 25.511269 40.529297 25.503906 z" fill="#D3D3D3" />
</svg>