<svg xmlns="http://www.w3.org/2000/svg" viewBox="0 0 48 48">
  <path d="M8.5 7C5.4802259 7 3 9.4802259 3 12.5L3 30.5C3 33.519774 5.4802259 36 8.5 36L39.5 36C42.519774 36 45 33.519774 45 30.5L45 12.5C45 9.4802259 42.519774 7 39.5 7L8.5 7 z M 8.5 10L39.5 10C40.898226 10 42 11.101774 42 12.5L42 30.5C42 31.898226 40.898226 33 39.5 33L8.5 33C7.1017741 33 6 31.898226 6 30.5L6 12.5C6 11.101774 7.1017741 10 8.5 10 z M 25 14C24.988 14 24.978797 14.006813 24.966797 14.007812C24.851797 14.011812 24.738859 14.031219 24.630859 14.074219C24.610859 14.082219 24.594219 14.094516 24.574219 14.103516C24.528219 14.125516 24.481453 14.142875 24.439453 14.171875C24.397453 14.199875 24.363172 14.235531 24.326172 14.269531C24.311172 14.283531 24.29525 14.295547 24.28125 14.310547C24.20325 14.391547 24.142703 14.484937 24.095703 14.585938C24.085703 14.607938 24.077359 14.629344 24.068359 14.652344C24.028359 14.762344 24 14.878 24 15L24 18L24 23.404297C23.413 23.153297 22.738 23 22 23C19.757 23 18 24.318 18 26C18 27.682 19.757 29 22 29C24.243 29 26 27.682 26 26L26 19.476562L29.628906 20.927734C29.749906 20.976734 29.875 21 30 21C30.197 21 30.392547 20.942125 30.560547 20.828125C30.834547 20.642125 31 20.332 31 20L31 18.353516C31 17.119516 30.259281 16.027359 29.113281 15.568359L25.371094 14.070312C25.263094 14.027313 25.150109 14.012813 25.037109 14.007812C25.024109 14.007812 25.014 14 25 14 z M 15.5 39 A 1.50015 1.50015 0 1 0 15.5 42L32.5 42 A 1.50015 1.50015 0 1 0 32.5 39L15.5 39 z" fill="#D3D3D3" />
</svg>