<?xml version="1.0" encoding="utf-8"?>
<svg xmlns="http://www.w3.org/2000/svg" viewBox="0 0 24 24" width="192" height="192">
  <path d="M18,21H6c-1.657,0-3-1.343-3-3V6c0-1.657,1.343-3,3-3h12c1.657,0,3,1.343,3,3v12C21,19.657,19.657,21,18,21z" opacity=".35" fill="#FFFFFF" />
  <path d="M17,11c-0.186,0-5.814,0-6,0c-0.552,0-1,0.448-1,1c0,0.552,0.448,1,1,1c0.186,0,5.814,0,6,0c0.552,0,1-0.448,1-1C18,11.448,17.552,11,17,11z" fill="#FFFFFF" />
  <circle cx="7" cy="12" r="1" fill="#FFFFFF" />
  <path d="M17,7c-0.186,0-5.814,0-6,0c-0.552,0-1,0.448-1,1c0,0.552,0.448,1,1,1c0.186,0,5.814,0,6,0c0.552,0,1-0.448,1-1C18,7.448,17.552,7,17,7z" fill="#FFFFFF" />
  <circle cx="7" cy="8" r="1" fill="#FFFFFF" />
  <path d="M17,15c-0.186,0-5.814,0-6,0c-0.552,0-1,0.448-1,1c0,0.552,0.448,1,1,1c0.186,0,5.814,0,6,0c0.552,0,1-0.448,1-1C18,15.448,17.552,15,17,15z" fill="#FFFFFF" />
  <circle cx="7" cy="16" r="1" fill="#FFFFFF" />
</svg>