<svg xmlns="http://www.w3.org/2000/svg" viewBox="0 0 48 48">
  <path d="M11.5 6C8.4802259 6 6 8.4802259 6 11.5L6 36.5C6 39.519774 8.4802259 42 11.5 42L36.5 42C39.519774 42 42 39.519774 42 36.5L42 11.5C42 8.4802259 39.519774 6 36.5 6L11.5 6 z M 11.5 9L36.5 9C37.898226 9 39 10.101774 39 11.5L39 36.5C39 37.898226 37.898226 39 36.5 39L11.5 39C10.101774 39 9 37.898226 9 36.5L9 11.5C9 10.101774 10.101774 9 11.5 9 z M 18.414062 15.177734C17.157794 15.255922 16 16.294687 16 17.65625L16 30.34375C16 32.159167 18.058191 33.400567 19.664062 32.556641L19.664062 32.554688L31.716797 26.210938L31.716797 26.212891C33.422794 25.316763 33.422976 22.684725 31.71875 21.787109L31.716797 21.787109L19.664062 15.443359C19.262595 15.232378 18.832819 15.151672 18.414062 15.177734 z M 19 18.482422L29.480469 24L19 29.515625L19 18.482422 z" fill="#D3D3D3" />
</svg>