<?xml version="1.0" encoding="utf-8"?>
<svg xmlns="http://www.w3.org/2000/svg" viewBox="0 0 24 24" width="192" height="192">
  <path d="M19,7h-6.774l0.564-1.551c0.604-1.662-0.134-3.512-1.716-4.302c-0.691-0.345-1.532-0.064-1.877,0.627L6.339,7.504 C5.532,8.042,5,8.958,5,10v7c0,2.209,1.791,4,4,4h6.989c2.344,0,4.373-1.628,4.881-3.915L22,12v-2C22,8.343,20.657,7,19,7z" opacity=".35" fill="#FFFFFF" />
  <path d="M7,19.5c0-0.386,0-10.614,0-11C7,7.672,6.328,7,5.5,7S4,7.672,4,8.5c0,0.386,0,10.614,0,11C4,20.328,4.672,21,5.5,21S7,20.328,7,19.5z" fill="#FFFFFF" />
</svg>