<?xml version="1.0" encoding="utf-8"?>
<svg xmlns="http://www.w3.org/2000/svg" viewBox="0 0 24 24" width="192" height="192">
  <path d="M16.237,11.707l-1.892-0.242c-0.568-0.073-1.103-0.306-1.543-0.674l-3.63-3.034c-0.391-0.391-1.024-0.391-1.414,0l0,0c-0.391,0.391-0.391,1.024,0,1.414l3.185,3.723c0.626,0.732,1.566,1.119,2.526,1.04l2.769-0.228c0.552,0,1-0.448,1-1v0C17.237,12.155,16.789,11.707,16.237,11.707z" fill="#FFFFFF" />
  <path d="M19.071,4.929c-1.669-1.669-3.78-2.624-5.956-2.867C12.521,1.996,12,2.465,12,3.063V12L5.68,5.68C5.253,5.253,4.55,5.302,4.174,5.774C0.811,9.99,1.35,16.294,5.79,19.841c1.793,1.432,4.001,2.148,6.21,2.149c2.208-0.001,4.416-0.717,6.21-2.149C22.958,16.048,23.245,9.103,19.071,4.929z" opacity=".35" fill="#FFFFFF" />
</svg>